<svg height='100px' width='100px'  fill="#707070" xmlns="http://www.w3.org/2000/svg" xmlns:xlink="http://www.w3.org/1999/xlink" version="1.1" x="0px" y="0px" viewBox="0 0 128 128" style="enable-background:new 0 0 128 128;" xml:space="preserve"><path d="M117.3954926,63.1903992C115.7157898,61.4443016,113.8251953,60.75,111.9032898,60.75  c-3.6532898,0-7.4208984,2.5059013-10.0751953,5.0615005c-0.044899,0.0429993-12.8095016,10.6298981-17.1483994,14.9092026  C83.8925934,81.4961014,82.3593979,82.125,81.2548904,82.125c-4.2382965,4.7509995-10.4013977,7.75-17.2543945,7.75  s-13.0166016-2.9990005-17.2549019-7.75h-0.3759995c-1.1044998,0-2.6758003-0.5868988-3.5097008-1.3115005L25.7997952,65.9862976  c-2.6044998-2.5057983-6.289999-5.1464958-9.8642988-5.1473961c-1.5883007,0-3.1547003,0.5223999-4.5947008,1.8094978  c-5.0404992,4.5029984-1.8500996,10.3662033,2.1470003,14.194397c0.0830002,0.0771027,19.1620979,18.3545074,19.1620979,18.3545074  s7.5033989,7.9569931,8.0376015,12.7801971V119.5c0,4.6942978,3.8051987,8.5,8.5,8.5h30.6885033c4.6942978,0,8.5-3.8057022,8.5-8.5  v-11.5224991c0.5311966-4.823204,7.572197-12.7801971,7.572197-12.7801971l18.6875-18.5430069  C118.0478897,73.1445007,121.469696,67.4307022,117.3954926,63.1903992z"></path><circle cx="64.0003738" cy="66.7509995" r="19.1253757"></circle><circle cx="18" cy="43" r="10"></circle><circle cx="64" cy="10" r="10"></circle><path d="M35.9931946,11c-1.8134995,0-3.6498985,0.4932003-5.3002987,1.5272999  c-4.6797009,2.9307003-6.0991001,9.0967007-3.1655998,13.7803001C29.4262962,29.3388996,32.6796951,31,36.0072937,31  c1.8135033,0,3.6490021-0.4932003,5.2998009-1.5272999c4.6796989-2.9307003,6.0987015-9.0967007,3.1655998-13.7803001  C42.5736961,12.6611004,39.320797,11,35.9931946,11z"></path><path d="M86.6903915,28.4717007C88.3417969,29.5067997,90.1776962,30,91.9921951,30  c3.327095,0,6.5791016-1.6602001,8.4785004-4.6903992c2.9356003-4.6826,1.5166016-10.8487005-3.1611023-13.7803011  c-1.6513977-1.0352001-3.4882965-1.5282993-5.302803-1.5282993c-3.327095,0-6.5790939,1.6601-8.4784927,4.6903992  C80.5937958,19.3740005,82.0116959,25.5391006,86.6903915,28.4717007z"></path><circle cx="110" cy="43" r="10"></circle></svg>