<svg height='100px' width='100px'  fill="#707070" xmlns:x="http://ns.adobe.com/Extensibility/1.0/" xmlns:i="http://ns.adobe.com/AdobeIllustrator/10.0/" xmlns:graph="http://ns.adobe.com/Graphs/1.0/" xmlns="http://www.w3.org/2000/svg" xmlns:xlink="http://www.w3.org/1999/xlink" version="1.1" x="0px" y="0px" viewBox="0 0 100 100" style="enable-background:new 0 0 100 100;" xml:space="preserve"><g><g i:extraneous="self"><g><path d="M5273.1,2400.1v-2c0-2.8-5-4-9.7-4s-9.7,1.3-9.7,4v2c0,1.8,0.7,3.6,2,4.9l5,4.9c0.3,0.3,0.4,0.6,0.4,1v6.4     c0,0.4,0.2,0.7,0.6,0.8l2.9,0.9c0.5,0.1,1-0.2,1-0.8v-7.2c0-0.4,0.2-0.7,0.4-1l5.1-5C5272.4,2403.7,5273.1,2401.9,5273.1,2400.1z      M5263.4,2400c-4.8,0-7.4-1.3-7.5-1.8v0c0.1-0.5,2.7-1.8,7.5-1.8c4.8,0,7.3,1.3,7.5,1.8C5270.7,2398.7,5268.2,2400,5263.4,2400z"></path><path d="M5268.4,2410.3c-0.6,0-1,0.4-1,1c0,0.6,0.4,1,1,1h4.3c0.6,0,1-0.4,1-1c0-0.6-0.4-1-1-1H5268.4z"></path><path d="M5272.7,2413.7h-4.3c-0.6,0-1,0.4-1,1c0,0.6,0.4,1,1,1h4.3c0.6,0,1-0.4,1-1C5273.7,2414.1,5273.3,2413.7,5272.7,2413.7z"></path><path d="M5272.7,2417h-4.3c-0.6,0-1,0.4-1,1c0,0.6,0.4,1,1,1h4.3c0.6,0,1-0.4,1-1C5273.7,2417.5,5273.3,2417,5272.7,2417z"></path></g><g><path d="M76.9,57.4c-1.4-0.8-3.1-0.5-4.3,0.6c-5.7,5.8-13.7,8.6-21.8,7.7c-12-1.4-21.7-11.1-23-23c-0.9-8.2,1.9-16.1,7.7-21.8     c1.2-1.1,1.4-2.9,0.6-4.3c-0.8-1.4-2.4-2.1-3.9-1.7C14,19.1,1.6,35.8,2.6,54.4c1,19.4,17,35.5,36.5,36.5c0.7,0,1.4,0.1,2.1,0.1     c17.8,0,33.4-12.2,37.6-29.6C79,59.7,78.3,58.2,76.9,57.4z"></path><path d="M48.5,31.4h6.3L45,44.9c-1,1.3-1.1,3.1-0.4,4.5c0.7,1.5,2.2,2.4,3.9,2.4h14.8c2.4,0,4.3-1.9,4.3-4.3     c0-2.4-1.9-4.3-4.3-4.3H57l9.8-13.5c1-1.3,1.1-3.1,0.4-4.5c-0.7-1.5-2.2-2.4-3.9-2.4H48.5c-2.4,0-4.3,1.9-4.3,4.3     S46.1,31.4,48.5,31.4z"></path><path d="M93.2,29.4h-6.3l9.8-13.5c1-1.3,1.1-3.1,0.4-4.5C96.3,10,94.8,9,93.2,9H78.3C75.9,9,74,11,74,13.4s1.9,4.3,4.3,4.3h6.3     l-9.8,13.5c-1,1.3-1.1,3.1-0.4,4.5c0.7,1.5,2.2,2.4,3.9,2.4h14.8c2.4,0,4.3-1.9,4.3-4.3C97.5,31.4,95.6,29.4,93.2,29.4z"></path></g></g></g></svg>